<?xml version="1.0"?>
<!DOCTYPE svg PUBLIC "-//W3C//DTD SVG 1.1//EN" "http://www.w3.org/Graphics/SVG/1.1/DTD/svg11.dtd">
<svg xmlns="http://www.w3.org/2000/svg" xmlns:xlink="http://www.w3.org/1999/xlink" id="svgfile" style="position:absolute;height:600px;width:800px" version="1.1" viewBox="0 0 800 600">
  <image id="image1" class="slide" in="0.0" out="94.5" xlink:href="presentation/d2d9a672040fbde2a47a10bf6c37b6a4b5ae187f-1583973129219/slide-1.png" width="1600" height="1132" x="0" y="0" style="visibility:hidden" text="presentation/d2d9a672040fbde2a47a10bf6c37b6a4b5ae187f-1583973129219/textfiles/slide-1.txt"/>
  <image id="image2" class="slide" in="94.5" out="100.2" xlink:href="presentation/d52edae53c8a19704e22e273124d845c8e696593-1583973218195/slide-1.png" width="1600" height="900" x="0" y="0" style="visibility:hidden" text="presentation/d52edae53c8a19704e22e273124d845c8e696593-1583973218195/textfiles/slide-1.txt"/>
  <image id="image3" class="slide" in="100.2" out="101.9" xlink:href="presentation/d52edae53c8a19704e22e273124d845c8e696593-1583973218195/slide-2.png" width="1600" height="900" x="0" y="0" style="visibility:hidden" text="presentation/d52edae53c8a19704e22e273124d845c8e696593-1583973218195/textfiles/slide-2.txt"/>
  <image id="image4" class="slide" in="101.9" out="107.9" xlink:href="presentation/d52edae53c8a19704e22e273124d845c8e696593-1583973218195/slide-3.png" width="1600" height="900" x="0" y="0" style="visibility:hidden" text="presentation/d52edae53c8a19704e22e273124d845c8e696593-1583973218195/textfiles/slide-3.txt"/>
  <image id="image5" class="slide" in="107.9" out="108.3" xlink:href="presentation/d52edae53c8a19704e22e273124d845c8e696593-1583973218195/slide-4.png" width="1600" height="900" x="0" y="0" style="visibility:hidden" text="presentation/d52edae53c8a19704e22e273124d845c8e696593-1583973218195/textfiles/slide-4.txt"/>
  <image id="image6" class="slide" in="108.3" out="109.0" xlink:href="presentation/d52edae53c8a19704e22e273124d845c8e696593-1583973218195/slide-5.png" width="1600" height="900" x="0" y="0" style="visibility:hidden" text="presentation/d52edae53c8a19704e22e273124d845c8e696593-1583973218195/textfiles/slide-5.txt"/>
  <image id="image7" class="slide" in="109.0" out="109.5" xlink:href="presentation/d52edae53c8a19704e22e273124d845c8e696593-1583973218195/slide-4.png" width="1600" height="900" x="0" y="0" style="visibility:hidden" text="presentation/d52edae53c8a19704e22e273124d845c8e696593-1583973218195/textfiles/slide-4.txt"/>
  <image id="image8" class="slide" in="109.5" out="247.8" xlink:href="presentation/d52edae53c8a19704e22e273124d845c8e696593-1583973218195/slide-3.png" width="1600" height="900" x="0" y="0" style="visibility:hidden" text="presentation/d52edae53c8a19704e22e273124d845c8e696593-1583973218195/textfiles/slide-3.txt"/>
  <g class="canvas" id="canvas8" image="image8" display="none">
    <g id="image8-draw1" class="shape" timestamp="113.5" undo="-1" shape="image8-pencil1" style="stroke:none;fill:#ff0000;visibility:hidden">
      <circle cx="1134.76064" cy="251.88872" r="0.92272"/>
    </g>
    <g id="image8-draw2" class="shape" timestamp="113.6" undo="-1" shape="image8-pencil1" style="stroke:#ff0000;stroke-linecap:round;stroke-linejoin:round;stroke-width:1.84544;visibility:hidden;fill:none">
      <path d="M1134.76064 251.88872L1132.91524 251.88871L1111.69261 262.03865L1080.32003 280.49309"/>
    </g>
    <g id="image8-draw3" class="shape" timestamp="113.7" undo="-1" shape="image8-pencil1" style="stroke:#ff0000;stroke-linecap:round;stroke-linejoin:round;stroke-width:1.84544;visibility:hidden;fill:none">
      <path d="M1134.76064 251.88872L1132.91524 251.88871L1111.69261 262.03865L1080.32003 280.49309L1039.72026 312.78834L1000.04323 348.77452L969.5934 381.99249"/>
    </g>
    <g id="image8-draw4" class="shape" timestamp="113.8" undo="-1" shape="image8-pencil1" style="stroke:#ff0000;stroke-linecap:round;stroke-linejoin:round;stroke-width:1.84544;visibility:hidden;fill:none">
      <path d="M1134.76064 251.88872L1132.91524 251.88871L1111.69261 262.03865L1080.32003 280.49309L1039.72026 312.78834L1000.04323 348.77452L969.5934 381.99249L960.36621 400.44696L962.21161 409.67417L965.90251 413.36505"/>
    </g>
    <g id="image8-draw5" class="shape" timestamp="113.9" undo="-1" shape="image8-pencil1" style="stroke:#ff0000;stroke-linecap:round;stroke-linejoin:round;stroke-width:1.84544;visibility:hidden;fill:none">
      <path d="M1134.76064 251.88872L1132.91524 251.88871L1111.69261 262.03865L1080.32003 280.49309L1039.72026 312.78834L1000.04323 348.77452L969.5934 381.99249L960.36621 400.44696L962.21161 409.67417L965.90251 413.36505L978.8206 412.44232L1024.03402 401.36965L1062.78839 381.06977"/>
    </g>
    <g id="image8-draw6" class="shape" timestamp="114.0" undo="-1" shape="image8-pencil1" style="stroke:#ff0000;stroke-linecap:round;stroke-linejoin:round;stroke-width:1.84544;visibility:hidden;fill:none">
      <path d="M1134.76064 251.88872L1132.91524 251.88871L1111.69261 262.03865L1080.32003 280.49309L1039.72026 312.78834L1000.04323 348.77452L969.5934 381.99249L960.36621 400.44696L962.21161 409.67417L965.90251 413.36505L978.8206 412.44232L1024.03402 401.36965L1062.78839 381.06977L1096.00637 327.55191L1091.39272 281.41581L1061.86564 256.5023"/>
    </g>
    <g id="image8-draw7" class="shape" timestamp="114.1" undo="-1" shape="image8-pencil1" style="stroke:#ff0000;stroke-linecap:round;stroke-linejoin:round;stroke-width:1.84544;visibility:hidden;fill:none">
      <path d="M1134.76064 251.88872L1132.91524 251.88871L1111.69261 262.03865L1080.32003 280.49309L1039.72026 312.78834L1000.04323 348.77452L969.5934 381.99249L960.36621 400.44696L962.21161 409.67417L965.90251 413.36505L978.8206 412.44232L1024.03402 401.36965L1062.78839 381.06977L1096.00637 327.55191L1091.39272 281.41581L1061.86564 256.5023L1035.10671 254.65686L1012.03868 274.03402L1000.04323 311.86564"/>
    </g>
    <g id="image8-draw8" class="shape" timestamp="114.2" undo="-1" shape="image8-pencil1" style="stroke:#ff0000;stroke-linecap:round;stroke-linejoin:round;stroke-width:1.84544;visibility:hidden;fill:none">
      <path d="M1134.76064 251.88872L1132.91524 251.88871L1111.69261 262.03865L1080.32003 280.49309L1039.72026 312.78834L1000.04323 348.77452L969.5934 381.99249L960.36621 400.44696L962.21161 409.67417L965.90251 413.36505L978.8206 412.44232L1024.03402 401.36965L1062.78839 381.06977L1096.00637 327.55191L1091.39272 281.41581L1061.86564 256.5023L1035.10671 254.65686L1012.03868 274.03402L1000.04323 311.86564L1003.73413 327.55191L1007.42503 329.39735L1009.27043 320.17014"/>
    </g>
    <g id="image8-draw9" class="shape" timestamp="114.3" undo="-1" shape="image8-pencil1" style="stroke:#ff0000;stroke-linecap:round;stroke-linejoin:round;stroke-width:1.84544;visibility:hidden;fill:none">
      <path d="M1134.76064 251.88872L1132.91524 251.88871L1111.69261 262.03865L1080.32003 280.49309L1039.72026 312.78834L1000.04323 348.77452L969.5934 381.99249L960.36621 400.44696L962.21161 409.67417L965.90251 413.36505L978.8206 412.44232L1024.03402 401.36965L1062.78839 381.06977L1096.00637 327.55191L1091.39272 281.41581L1061.86564 256.5023L1035.10671 254.65686L1012.03868 274.03402L1000.04323 311.86564L1003.73413 327.55191L1007.42503 329.39735L1009.27043 320.17014L997.27509 293.41118L965.90251 283.26124L923.45734 295.25663"/>
    </g>
    <g id="image8-draw10" class="shape" timestamp="114.4" undo="-1" shape="image8-pencil1" style="stroke:#ff0000;stroke-linecap:round;stroke-linejoin:round;stroke-width:1.84544;visibility:hidden;fill:none">
      <path d="M1134.76064 251.88872L1132.91524 251.88871L1111.69261 262.03865L1080.32003 280.49309L1039.72026 312.78834L1000.04323 348.77452L969.5934 381.99249L960.36621 400.44696L962.21161 409.67417L965.90251 413.36505L978.8206 412.44232L1024.03402 401.36965L1062.78839 381.06977L1096.00637 327.55191L1091.39272 281.41581L1061.86564 256.5023L1035.10671 254.65686L1012.03868 274.03402L1000.04323 311.86564L1003.73413 327.55191L1007.42503 329.39735L1009.27043 320.17014L997.27509 293.41118L965.90251 283.26124L923.45734 295.25663L913.30739 308.17474L916.99829 309.09747L936.37543 296.17935"/>
    </g>
    <g id="image8-draw11" class="shape" timestamp="114.5" undo="-1" shape="image8-pencil1" style="stroke:#ff0000;stroke-linecap:round;stroke-linejoin:round;stroke-width:1.84544;visibility:hidden;fill:none">
      <path d="M1134.76064 251.88872L1132.91524 251.88871L1111.69261 262.03865L1080.32003 280.49309L1039.72026 312.78834L1000.04323 348.77452L969.5934 381.99249L960.36621 400.44696L962.21161 409.67417L965.90251 413.36505L978.8206 412.44232L1024.03402 401.36965L1062.78839 381.06977L1096.00637 327.55191L1091.39272 281.41581L1061.86564 256.5023L1035.10671 254.65686L1012.03868 274.03402L1000.04323 311.86564L1003.73413 327.55191L1007.42503 329.39735L1009.27043 320.17014L997.27509 293.41118L965.90251 283.26124L923.45734 295.25663L913.30739 308.17474L916.99829 309.09747L936.37543 296.17935L942.83447 279.57036L927.14823 269.42042L856.09863 268.4977"/>
    </g>
    <g id="image8-draw12" class="shape" timestamp="114.6" undo="-1" shape="image8-pencil1" style="stroke:#ff0000;stroke-linecap:round;stroke-linejoin:round;stroke-width:1.84544;visibility:hidden;fill:none">
      <path d="M1134.76064 251.88872L1132.91524 251.88871L1111.69261 262.03865L1080.32003 280.49309L1039.72026 312.78834L1000.04323 348.77452L969.5934 381.99249L960.36621 400.44696L962.21161 409.67417L965.90251 413.36505L978.8206 412.44232L1024.03402 401.36965L1062.78839 381.06977L1096.00637 327.55191L1091.39272 281.41581L1061.86564 256.5023L1035.10671 254.65686L1012.03868 274.03402L1000.04323 311.86564L1003.73413 327.55191L1007.42503 329.39735L1009.27043 320.17014L997.27509 293.41118L965.90251 283.26124L923.45734 295.25663L913.30739 308.17474L916.99829 309.09747L936.37543 296.17935L942.83447 279.57036L927.14823 269.42042L856.09863 268.4977L768.44004 298.94753L734.29932 324.78373L737.99021 325.70646"/>
    </g>
    <g id="image8-draw13" class="shape" timestamp="114.7" undo="-1" shape="image8-pencil1" style="stroke:#ff0000;stroke-linecap:round;stroke-linejoin:round;stroke-width:1.84544;visibility:hidden;fill:none">
      <path d="M1134.76064 251.88872L1132.91524 251.88871L1111.69261 262.03865L1080.32003 280.49309L1039.72026 312.78834L1000.04323 348.77452L969.5934 381.99249L960.36621 400.44696L962.21161 409.67417L965.90251 413.36505L978.8206 412.44232L1024.03402 401.36965L1062.78839 381.06977L1096.00637 327.55191L1091.39272 281.41581L1061.86564 256.5023L1035.10671 254.65686L1012.03868 274.03402L1000.04323 311.86564L1003.73413 327.55191L1007.42503 329.39735L1009.27043 320.17014L997.27509 293.41118L965.90251 283.26124L923.45734 295.25663L913.30739 308.17474L916.99829 309.09747L936.37543 296.17935L942.83447 279.57036L927.14823 269.42042L856.09863 268.4977L768.44004 298.94753L734.29932 324.78373L737.99021 325.70646L785.04903 316.47924L818.26701 298.0248L818.26701 295.25663"/>
    </g>
    <g id="image8-draw14" class="shape" timestamp="114.8" undo="-1" shape="image8-pencil1" style="stroke:#ff0000;stroke-linecap:round;stroke-linejoin:round;stroke-width:1.84544;visibility:hidden;fill:none">
      <path d="M1134.76064 251.88872L1132.91524 251.88871L1111.69261 262.03865L1080.32003 280.49309L1039.72026 312.78834L1000.04323 348.77452L969.5934 381.99249L960.36621 400.44696L962.21161 409.67417L965.90251 413.36505L978.8206 412.44232L1024.03402 401.36965L1062.78839 381.06977L1096.00637 327.55191L1091.39272 281.41581L1061.86564 256.5023L1035.10671 254.65686L1012.03868 274.03402L1000.04323 311.86564L1003.73413 327.55191L1007.42503 329.39735L1009.27043 320.17014L997.27509 293.41118L965.90251 283.26124L923.45734 295.25663L913.30739 308.17474L916.99829 309.09747L936.37543 296.17935L942.83447 279.57036L927.14823 269.42042L856.09863 268.4977L768.44004 298.94753L734.29932 324.78373L737.99021 325.70646L785.04903 316.47924L818.26701 298.0248L818.26701 295.25663L790.58533 300.79297L648.48618 360.76991L573.74568 411.5196"/>
    </g>
    <g id="image8-draw16" class="shape" timestamp="115.0" undo="-1" shape="image8-pencil1" style="stroke:#ff0000;stroke-linecap:round;stroke-linejoin:round;stroke-width:1.84544;visibility:hidden;fill:none">
      <path d="M1134.76064 251.88872C1126.37928 255.96408,1117.73056 259.52998,1109.61648 264.11478C1070.08544 286.45146,1034.57344 316.08744,1002.35003 348.08247C992.69323 357.67071,983.29168 367.58862,974.89904 378.30161C968.2424 386.79864,959.01056 398.13522,962.67296 408.29009C963.44043 410.41791,965.95312 412.06122,968.20934 412.21163C974.47104 412.62908,980.79552 411.38415,986.89446 409.90485C998.92624 406.9865,1011.33819 404.58623,1022.41925 399.06285C1036.44768 392.07039,1050.7871 384.29908,1061.40432 372.76529C1072.72048 360.4721,1082.10032 345.50559,1086.54848 329.39734C1090.3368 315.67842,1089.95408 300.12345,1085.16432 286.72146C1081.42816 276.26717,1072.30496 267.57772,1062.5576 262.26932C1054.76184 258.02374,1044.4256 257.08261,1036.02944 259.96252C1018.25856 266.05785,1008.41376 288.07025,1003.96485 306.32931C1002.5631 312.08217,1002.85578 318.23595,1003.73413 324.09171C1004.05376 326.2225,1006.19477 327.6288,1007.42506 329.39734C1006.88678 324.86064,1007.75683 319.91994,1005.81024 315.7872C1002.59888 308.96919,998.79904 301.5909,992.43078 297.56343C983.8152 292.11462,973.32134 289.14484,963.1344 288.79758C952.37296 288.43069,941.56714 291.58443,931.53112 295.48732C924.63318 298.16987,919.38195 303.94559,913.30736 308.17476C920.79312 305.67951,928.06726 301.29755,933.14587 295.25664C937.10053 290.55271,939.60496 284.79911,942.83448 279.57037C932.99213 276.95597,923.48437 272.08885,913.30736 271.72723C868.65392 270.14055,823.13792 280.78066,781.81952 297.79411C764.97565 304.72983,750.13941 315.7872,734.29931 324.78374C763.78608 321.50745,795.15936 313.87109,818.26704 295.25664C766.04416 313.02095,713.84741 332.21916,665.32587 358.46307C639.8704 372.23122,614.16624 386.61252,592.6615 405.98328C583.10464 414.59175,580.66608 428.74376,574.6684 440.12401C592.58459 439.66265,610.63386 440.96862,628.41696 438.73992C640.30133 437.25047,651.83808 433.34743,663.01904 429.05133C667.61749 427.28443,671.16976 423.51498,675.24512 420.74681"/>
    </g>
    <g id="image8-draw17" class="shape" timestamp="117.5" undo="-1" shape="image8-rect2" style="stroke:#ff0000;stroke-width:1.84544;visibility:hidden;fill:none;stroke-linejoin:miter">
      <path d="M307.07901 567.4596L308.92448 567.4596L308.92448 568.38236L307.07901 568.38236Z"/>
    </g>
    <g id="image8-draw19" class="shape" timestamp="117.6" undo="-1" shape="image8-rect2" style="stroke:#ff0000;stroke-width:1.84544;visibility:hidden;fill:none;stroke-linejoin:miter">
      <path d="M307.07901 567.45962L448.25546 567.45962L448.25546 630.20472L307.07901 630.20472Z"/>
    </g>
    <g id="image8-draw24" class="shape" timestamp="117.7" undo="-1" shape="image8-rect2" style="stroke:#ff0000;stroke-width:1.84544;visibility:hidden;fill:none;stroke-linejoin:miter">
      <path d="M307.07901 567.45962L908.69375 567.45962L908.69375 787.06746L307.07901 787.06746Z"/>
    </g>
    <g id="image8-draw26" class="shape" timestamp="117.8" undo="-1" shape="image8-rect2" style="stroke:#ff0000;stroke-width:1.84544;visibility:hidden;fill:none;stroke-linejoin:miter">
      <path d="M307.07901 567.45962L926.22548 567.45962L926.22548 787.99021L307.07901 787.99021Z"/>
    </g>
    <g id="image8-draw29" class="shape" timestamp="117.9" undo="-1" shape="image8-rect2" style="stroke:#ff0000;stroke-width:1.84544;visibility:hidden;fill:none;stroke-linejoin:miter">
      <path d="M307.07901 567.45962L963.13436 567.45962L963.13436 787.06746L307.07901 787.06746Z"/>
    </g>
  </g>
</svg>
